<?xml version="1.0" encoding="UTF-8"?>
<svg id="Layer_2" data-name="Layer 2" xmlns="http://www.w3.org/2000/svg" viewBox="0 0 1149 278.83">
  <defs>
    <style>
      .cls-1 {
        fill: #00e676;
        stroke-width: 0px;
      }
    </style>
  </defs>
  <g id="Layer_1-2" data-name="Layer 1">
    <g>
      <g>
        <path class="cls-1" d="M27.03,14.95c11.61,17.78,22.94,35.13,34.68,53.11-4.61,0-8.49-.33-12.29.09-3.89.43-5.85-1.25-7.85-4.33C28.4,43.45,15.02,23.2,1.71,2.91,1.21,2.15.75,1.38,0,.18c1.07-.05,1.83-.12,2.59-.12,32.48,0,64.96-.02,97.44.06.87,0,2.09.85,2.57,1.65,5.11,8.52,10.1,17.1,15.24,25.87,18.16-12.71,38.06-19.77,60.31-18.69,22.16,1.07,41.35,9.66,58.08,24.27,3.98-7.2,7.88-14.28,11.8-21.36,1.76-3.19,3.63-6.32,5.25-9.58C254.13.55,255.19,0,257.12,0c22.12.07,44.25.04,66.37.03,6.71,0,13.42,0,20.13,0,1.21,0,2.42,0,4.07,0-.62,1.15-.96,1.86-1.38,2.53-13.17,21.17-26.35,42.33-39.49,63.52-.88,1.42-1.79,2.07-3.53,2.02-4.62-.13-9.25-.05-14.53-.05,11.01-17.81,21.77-35.21,32.74-52.95-1.19-.07-1.96-.16-2.74-.16-17.9,0-35.79.01-53.69-.03-1.48,0-2.39.34-3.15,1.73-4.73,8.74-9.52,17.45-14.41,26.1-.93,1.65-.77,2.69.37,4.11,5.06,6.32,8.81,13.41,11.94,20.85.35.84.62,1.71.91,2.57.04.13-.05.31-.15.76-4.72,0-9.5.06-14.27-.08-.62-.02-1.39-.96-1.78-1.64-1.9-3.36-3.69-6.77-5.59-10.29-19.68,33.93-39.14,67.49-58.89,101.53-3.11-5.12-5.87-9.6-8.57-14.12-14.53-24.31-29.08-48.6-43.54-72.95-11.11-18.73-22.11-37.53-33.09-56.34-.94-1.62-1.9-2.27-3.85-2.26-20.3.09-40.6.06-60.9.06-.83,0-1.65,0-3.08,0ZM125.16,40.85c18.15,30.37,36.32,60.77,54.77,91.64,16.61-28.88,32.86-57.13,49.05-85.27-26.81-28.16-72.43-31.04-103.82-6.37Z"/>
        <path class="cls-1" d="M263.7,130.55c-28.06,50.02-58.68,98.52-88.09,148.28-16.15-26.57-31.99-52.62-48.06-79.07,5.2,1.56,9.85,3.34,14.67,4.28,4.46.87,7.06,3.19,9.32,7.02,7.34,12.49,15.05,24.76,22.62,37.12.42.68.86,1.34,1.45,2.25,13.85-22.93,27.54-45.59,41.66-68.96-21.24,12.23-43.38,14.82-66.26,9.71-22.95-5.12-41.54-17.32-54.76-37.09-25.03-37.44-18.26-78.74,1.94-106,2.69,4.25,5.37,8.41,7.91,12.65.28.47-.14,1.54-.51,2.18-7.46,13.11-11.3,27.1-10.75,42.28,1.25,34.83,25.78,63.93,60.26,71.28,19.75,4.21,38.38,1.28,56.3-8.08,15.83-8.28,26.76-20.81,34.19-36.74.65-1.39,1.38-1.94,2.96-1.91,4.86.11,9.73.04,14.59.04.19.25.38.51.58.76Z"/>
      </g>
      <g>
        <g>
          <path class="cls-1" d="M385.38,163.21c-32.47,0-56.46-25.59-56.46-59.34s23.99-56.95,56.46-56.95h63.02v20.31h-63.02c-20.79,0-36.15,15.52-36.15,37.59s15.2,38.07,36.15,38.07h63.02v20.32h-63.02Z"/>
          <path class="cls-1" d="M457.04,46.92h24.79l52.79,89.58,52.63-89.58h23.35l-67.02,111.33c-2.4,4-5.6,6.56-9.76,6.56-4.48,0-7.52-2.56-9.92-6.56l-66.86-111.33Z"/>
          <path class="cls-1" d="M623.07,163.69V46.92h20.32v116.77h-20.32ZM716.65,163.69v-50.55h-58.54v-18.08h58.54v-48.15h20.31v116.77h-20.31Z"/>
          <path class="cls-1" d="M810.22,163.21c-32.47,0-56.46-25.59-56.46-59.34s23.99-56.95,56.46-56.95h28.31c33.59,0,56.95,23.19,56.95,56.95s-23.83,59.34-56.95,59.34h-28.31ZM838.53,142.89c21.43,0,36.63-16.15,36.63-38.07s-15.2-37.59-36.63-37.59h-28.31c-20.79,0-36.15,15.52-36.15,37.59s15.2,38.07,36.15,38.07h28.31Z"/>
          <path class="cls-1" d="M911.95,163.21V46.92h20.32v95.97h78.22v20.32h-98.53Z"/>
          <path class="cls-1" d="M1025.03,163.21V46.92h67.34c32.79,0,56.62,23.19,56.62,56.95s-23.83,59.34-56.62,59.34h-67.34ZM1092.38,142.89c20.96,0,36.31-16.15,36.31-38.07s-15.36-37.59-36.31-37.59h-47.19v75.66h47.19Z"/>
        </g>
        <g>
          <path class="cls-1" d="M363.37,218.32l-6.07,11.45c-.75,1.45-2.1,2.15-3.49,2.15-1.5,0-2.74-.7-3.55-2.15l-20.2-37.45h8.17l15.8,30.04,5.91-10.64-10.15-19.4h8.22l15.1,30.04,15.9-30.04h7.63l-20.2,37.45c-.81,1.45-2.1,2.15-3.55,2.15s-2.74-.7-3.49-2.15l-6.02-11.45Z"/>
          <path class="cls-1" d="M413.44,231.38c-10.91,0-18.97-8.6-18.97-19.93s8.06-19.13,18.97-19.13h9.51c11.28,0,19.13,7.79,19.13,19.13s-8.01,19.93-19.13,19.93h-9.51ZM422.95,224.55c7.2,0,12.3-5.43,12.3-12.79s-5.11-12.63-12.3-12.63h-9.51c-6.98,0-12.14,5.21-12.14,12.63s5.1,12.79,12.14,12.79h9.51Z"/>
          <path class="cls-1" d="M483.87,231.38l-9.89-10.85h-14.62v-6.02h16.28c4.89,0,7.47-2.79,7.47-7.84s-2.79-7.52-7.47-7.52h-21.28v32.24h-6.77v-39.06h28.05c8.92,0,14.19,5.53,14.19,14.24,0,6.45-3.01,11.02-8.06,12.95l11.77,11.87h-9.67Z"/>
          <path class="cls-1" d="M497.09,231.38v-39.06h6.82v39.06h-6.82ZM529.27,231.38l-21.87-17.19c-1.18-.91-1.4-1.77-1.4-2.85,0-1.18.32-2.04,1.72-3.12l20.69-15.9h10.48l-25.58,19.08,26.38,19.99h-10.42Z"/>
          <path class="cls-1" d="M544.1,231.38v-39.06h33.15v6.82h-26.38v32.24h-6.77ZM555.86,215.2v-5.96h19.77v5.96h-19.77Z"/>
          <path class="cls-1" d="M599.81,231.38c-10.91,0-18.97-8.6-18.97-19.93s8.06-19.13,18.97-19.13h9.51c11.28,0,19.13,7.79,19.13,19.13s-8.01,19.93-19.13,19.93h-9.51ZM609.32,224.55c7.2,0,12.3-5.43,12.3-12.79s-5.11-12.63-12.3-12.63h-9.51c-6.98,0-12.14,5.21-12.14,12.63s5.1,12.79,12.14,12.79h9.51Z"/>
          <path class="cls-1" d="M670.25,231.38l-9.89-10.85h-14.62v-6.02h16.28c4.89,0,7.47-2.79,7.47-7.84s-2.79-7.52-7.47-7.52h-21.28v32.24h-6.77v-39.06h28.05c8.92,0,14.19,5.53,14.19,14.24,0,6.45-3.01,11.02-8.06,12.95l11.77,11.87h-9.67Z"/>
          <path class="cls-1" d="M700.38,231.38c-10.91,0-18.97-8.6-18.97-19.93s8.06-19.13,18.97-19.13h21.17v6.82h-21.17c-6.98,0-12.14,5.21-12.14,12.63s5.1,12.79,12.14,12.79h21.17v6.82h-21.17Z"/>
          <path class="cls-1" d="M727.08,231.38v-39.06h34.87v6.82h-28.1v25.41h28.16v6.82h-34.93ZM738.85,214.4v-5.75h21.65v5.75h-21.65Z"/>
          <path class="cls-1" d="M795.42,220.52v-6.61h15.69c4.78,0,7.63-3.01,7.63-7.42s-2.85-7.36-7.63-7.36h-20.69v32.24h-6.77v-39.06h27.46c9.03,0,14.29,5.43,14.29,13.97s-5.27,14.24-14.29,14.24h-15.69Z"/>
          <path class="cls-1" d="M830.23,231.38v-39.06h6.82v32.24h26.28v6.82h-33.1Z"/>
          <path class="cls-1" d="M908.95,231.38l-5.86-9.83h-18.48l3.22-5.53h11.98l-8.7-14.62-17.73,29.98h-7.79l22.46-37.4c.81-1.34,1.83-2.2,3.33-2.2s2.47.86,3.28,2.2l22.51,37.4h-8.22Z"/>
          <path class="cls-1" d="M926.94,231.38v-32.24h-14.83v-6.82h36.48v6.82h-14.83v32.24h-6.82Z"/>
          <path class="cls-1" d="M953.1,231.38v-39.06h33.15v6.82h-26.38v32.24h-6.77ZM964.87,215.2v-5.96h19.77v5.96h-19.77Z"/>
          <path class="cls-1" d="M1008.82,231.38c-10.91,0-18.97-8.6-18.97-19.93s8.06-19.13,18.97-19.13h9.51c11.28,0,19.13,7.79,19.13,19.13s-8.01,19.93-19.13,19.93h-9.51ZM1018.33,224.55c7.2,0,12.3-5.43,12.3-12.79s-5.11-12.63-12.3-12.63h-9.51c-6.98,0-12.14,5.21-12.14,12.63s5.1,12.79,12.14,12.79h9.51Z"/>
          <path class="cls-1" d="M1079.25,231.38l-9.89-10.85h-14.62v-6.02h16.28c4.89,0,7.47-2.79,7.47-7.84s-2.79-7.52-7.47-7.52h-21.28v32.24h-6.77v-39.06h28.05c8.92,0,14.19,5.53,14.19,14.24,0,6.45-3.01,11.02-8.06,12.95l11.77,11.87h-9.67Z"/>
          <path class="cls-1" d="M1141.09,231.38l-7.47-27.46-11.07,25.42c-.75,1.67-1.83,2.58-3.49,2.58s-2.79-.91-3.49-2.58l-11.02-25.42-7.47,27.46h-6.72l10.05-36.75c.48-1.88,1.56-2.79,3.39-2.79,1.45,0,2.79.81,3.44,2.31l12.04,27.62,12.04-27.62c.64-1.5,1.83-2.31,3.28-2.31,1.67,0,2.74.91,3.28,2.79l9.99,36.75h-6.77Z"/>
        </g>
      </g>
    </g>
  </g>
</svg>